<svg version="1.1"
     width="400" height="300"
     xmlns="http://www.w3.org/2000/svg">

  <rect width="400" height="300" fill="white"></rect>

  <circle cx="80" cy="80" r="40" fill="yellow"></circle>

  <line x1="125" y1="80" x2="140" y2="80" stroke="orange" stroke-width="3"></line>
  <line x1="116" y1="106" x2="128" y2="115" stroke="orange" stroke-width="3"></line>
  <line x1="93" y1="122" x2="98" y2="137" stroke="orange" stroke-width="3"></line>
  <line x1="66" y1="122" x2="61" y2="137" stroke="orange" stroke-width="3"></line>
  <line x1="43" y1="106" x2="31" y2="115" stroke="orange" stroke-width="3"></line>
  <line x1="35" y1="80" x2="20" y2="80" stroke="orange" stroke-width="3"></line>
  <line x1="43" y1="53" x2="31" y2="44" stroke="orange" stroke-width="3"></line>
  <line x1="66" y1="37" x2="61" y2="22" stroke="orange" stroke-width="3"></line>
  <line x1="93" y1="37" x2="98" y2="22" stroke="orange" stroke-width="3"></line>
  <line x1="116" y1="53" x2="128" y2="44" stroke="orange" stroke-width="3"></line>
  <path d="M 0 245 L 0 245 L 5 243 L 10 237 L 15 229 L 20 220 L 25 210 L 30 202 L 35 196 L 40 195 L 45 196 L 50 202 L 55 210 L 60 220 L 65 229 L 70 237 L 75 243 L 80 245 L 85 243 L 90 237 L 95 229 L 100 220 L 105 210 L 110 202 L 115 196 L 120 195 L 125 196 L 130 202 L 135 210 L 140 220 L 145 229 L 150 237 L 155 243 L 160 245 L 165 243 L 170 237 L 175 229 L 180 220 L 185 210 L 190 202 L 195 196 L 200 195 L 205 196 L 210 202 L 215 210 L 220 220 L 225 229 L 230 237 L 235 243 L 240 245 L 245 243 L 250 237 L 255 229 L 260 220 L 265 210 L 270 202 L 275 196 L 280 195 L 285 196 L 290 202 L 295 210 L 300 219 L 305 229 L 310 237 L 315 243 L 320 245 L 325 243 L 330 237 L 335 229 L 340 219 L 345 210 L 350 202 L 355 196 L 360 195 L 365 196 L 370 202 L 375 210 L 380 220 L 385 229 L 390 237 L 395 243 L 400 245 L 400 300 L 0 300 Z" fill="lime"></path>
</svg>